#N canvas 552 323 450 300 12;
#X obj 95 152 osc~ 456;
#X obj 95 177 *~ 0.1;
#X obj 95 202 dac~ 1;
#X obj 198 150 osc~ 567;
#X obj 198 175 *~ 0.1;
#X obj 199 201 dac~ 2;
#X msg 116 81 \; pd dsp 1;
#X obj 116 56 loadbang;
#X connect 0 0 1 0;
#X connect 1 0 2 0;
#X connect 3 0 4 0;
#X connect 4 0 5 0;
#X connect 7 0 6 0;
